<svg width="113" height="138" viewBox="0 0 113 138" fill="none" xmlns="http://www.w3.org/2000/svg">
<path d="M89.954 1.37595C85.5328 1.02181 82.2945 5.77115 80.2948 8.70385C79.9437 9.21878 79.6308 9.67778 79.3563 10.0432C71.2861 20.7904 69.7339 26.5211 68.5221 26.9665C67.2343 27.44 66.3308 21.9443 58.397 10.157C58.1426 9.77915 57.8549 9.30609 57.532 8.77529C55.6932 5.75241 52.7155 0.857035 48.2808 1.0031C46.4843 1.06228 45.289 1.19336 43.8532 2.29912C41.4779 4.12852 40.8647 6.84397 41.7069 9.73801C44.827 20.4585 54.6689 29.8509 64.8134 34.2253C64.378 35.9754 64.4201 38.4341 64.0469 40.2426C62.9749 45.4371 61.9124 50.6451 60.8308 55.8467C56.8893 50.9966 52.5265 47.073 47.9609 42.6817C42.6939 37.6158 37.2075 32.5766 31.6026 29.2153C27.7883 26.9279 21.9944 23.6026 19.5617 25.2812C17.2538 26.8736 16.9927 31.0958 19.6846 35.8844C23.0144 41.8076 30.0082 49.0951 35.0818 53.1505C41.5176 58.2948 50.8299 61.2734 59.0839 61.0528C58.5382 63.9774 58.3873 70.3781 57.9786 73.3402C57.1996 78.9863 56.3591 82.4423 55.3267 86.8224C52.9898 83.6108 46.0847 75.1637 39.353 69.6737C39.0018 69.3872 38.5914 69.0196 38.131 68.6071C35.509 66.258 31.2628 62.4538 27.0535 63.8977C25.3483 64.4826 24.2398 64.9595 23.178 66.4389C21.4212 68.8864 21.6055 71.6628 23.2357 74.1818C29.7232 84.2062 43.2109 90.4838 54.7692 90.9815C52.9868 96.9392 51.8788 102.04 51.9739 112.292C48.9904 108.473 44.6977 105.185 40.9954 102.257C39.4575 101.041 37.9194 99.825 36.4118 98.5052C30.0948 92.9751 23.5272 87.4877 16.9119 83.9333C12.4099 81.5145 5.57929 78.0118 2.87315 80.0717C0.305877 82.0259 0.228278 86.8883 3.57263 92.2401C7.91569 99.1901 15.6708 106.516 22.1686 111.227C27.6402 115.194 36.1494 118.271 42.8964 118.709C43.4562 118.746 44.0178 118.789 44.5783 118.832C46.7064 118.996 49.0234 119.333 51.1386 118.851C50.8857 120.914 50.2918 133.681 50.9583 135.388C51.306 136.279 52.0022 136.723 53.5855 136.569C54.4343 136.486 54.4683 136.219 55.2345 131.273C55.5783 128.191 56.0133 124.394 56.3689 121.411C58.3237 122.166 60.5388 122.286 62.5991 122.51C63.158 122.571 63.718 122.631 64.2749 122.699C71.1174 123.526 79.7911 122.116 86.0389 119.163C89.8076 117.382 93.8995 114.814 97.4909 112.221C98.0082 111.848 98.5385 111.47 99.0758 111.087C102.132 108.91 105.416 106.57 107.853 103.929C112.138 99.2852 112.968 94.4928 110.81 92.0997C108.534 89.5772 101.169 91.7616 96.294 93.3096C89.1304 95.5843 81.6533 99.7674 74.4146 104.039C72.6869 105.058 70.9486 105.97 69.2107 106.882C65.6593 108.745 62.272 110.816 58.8973 112.981C58.2989 113.364 57.7621 113.743 57.284 114.116C57.295 100.332 57.5973 97.8813 59.2 92.4952C59.4705 92.7475 60.829 92.6886 61.3641 92.7708C72.8057 94.5297 87.2855 90.9792 95.6159 82.3893C97.7069 80.2332 98.4297 77.5453 97.1842 74.805C96.4314 73.1486 95.4371 72.4667 93.8786 71.5634C90.0313 69.3337 85.1233 72.2452 82.0926 74.043C81.5604 74.3586 81.0861 74.64 80.6856 74.8531C72.1131 79.4155 62.6082 87.5547 60.88 89.3499C60.7285 89.5071 60.3411 90.2878 59.4552 90.4922C59.6085 89.2887 60.0396 85.3738 60.9214 78.9826C61.127 77.4926 63.7131 65.0729 64.1118 65.1401C72.3532 66.5292 82.0409 64.7702 89.0197 60.6423C94.8079 57.2186 102.491 51.2015 106.723 45.679C110.07 41.3106 110.412 37.094 108.354 35.1978C106.184 33.1991 99.9744 35.6892 95.8722 37.4259C89.8442 39.9779 83.6948 44.2075 77.7586 48.4941C76.3419 49.5171 74.9075 50.4481 73.4733 51.3789C72.1309 52.2502 70.7886 53.1213 69.4615 54.0676C68.3784 54.8399 67.3052 55.69 66.2376 56.5355C65.9753 56.7433 65.7132 56.9509 65.4516 57.1569C66.0269 54.3425 66.6361 51.5263 67.2503 48.6874C67.8207 46.0506 68.3953 43.3943 68.951 40.7017C69.3521 38.7581 69.8224 36.8726 70.3109 34.9146C70.3724 34.6746 70.4308 34.4337 70.4906 34.1933C81.2373 30.5489 92.2152 21.3619 96.0478 10.4085C97.0453 7.55766 96.5795 4.81686 94.306 2.87824C92.9317 1.70645 91.745 1.51941 89.954 1.37595Z" fill="#FEFAE0" stroke="#606C38" stroke-width="2" stroke-linecap="round"/>
</svg>
