<svg width="56" height="131" viewBox="0 0 56 131" fill="none" xmlns="http://www.w3.org/2000/svg">
<path d="M26.9647 8.29251C27.2591 11.7701 23.6173 17.281 21.2933 18.5937C21.2829 18.7452 21.2677 18.9076 21.2473 19.0813C21.0154 21.0604 20.4657 28.1948 20.4354 29.0875C20.39 30.4276 20.2962 31.7994 20.1912 33.1683C20.7348 31.788 21.4339 30.4677 22.1521 29.1536C24.0314 25.7146 27.8145 23.7946 32.4548 24.13C35.0221 24.3155 38.8729 26.1954 37.5266 29.1536C36.9455 30.4305 35.41 31.5285 34.1301 32.4438C33.884 32.6197 33.6474 32.7889 33.4288 32.9514C29.7617 35.6763 24.475 38.219 19.7644 39.2808C19.56 44.0873 20.6513 48.7465 21.2473 53.4948C21.6326 56.0071 22.0132 58.4886 22.5313 60.9448C23.6236 55.7371 28.9698 47.3174 33.2268 46.687C35.3026 46.3796 37.5543 46.4638 38.6075 48.4272C39.4221 49.9459 38.9637 52.1378 38.3224 53.615C37.2007 56.1989 35.0819 58.4316 32.8586 60.2693C30.1273 62.5269 26.9722 63.7351 23.3209 64.223C23.5097 64.9094 23.7143 65.5939 23.9382 66.2767C25.0354 69.6233 26.4982 72.8477 27.9843 76.1235C28.3736 76.9816 28.7646 77.8434 29.151 78.7117C29.3379 79.1318 29.523 79.5525 29.7089 79.973C30.4862 81.7836 31.3027 83.5898 32.2206 85.3485C31.7519 81.7186 32.8903 76.139 36.1846 73.4029C39.1359 70.9516 43.6676 72.2748 43.6676 75.8764C43.6676 81.0194 37.7187 85.249 33.6083 87.8699C35.509 91.3377 37.1759 94.8287 38.7299 98.4461C39.252 99.6616 39.8729 100.98 40.5133 102.34C40.7347 102.81 40.9557 103.28 41.1753 103.751C41.2286 103.238 41.3212 102.703 41.4058 102.215C41.7994 99.941 41.6538 97.503 42.8479 95.4124C43.8366 93.6815 45.4923 92.0129 47.1596 90.8266C48.5385 89.8456 50.6431 89.3063 52.3146 89.9511C54.4867 90.7889 55.0263 93.0979 54.999 95.0294C54.9261 100.203 47.0246 106.25 42.8124 107.421C43.3699 108.762 43.8524 110.07 44.1852 111.285C45.784 117.125 47.659 123.988 48.6645 129.128C48.6645 129.77 43.106 130.569 42.8064 129.413C42.7153 128.753 42.6295 128.134 42.5486 127.55C41.8564 122.555 41.5284 120.187 41.3756 117.738C41.1294 113.794 39.6012 108.2 38.1508 103.896C34.841 103.918 31.589 104.225 28.2975 104.584C24.4163 105.008 15.8554 105.786 15.0656 100.546C14.799 98.7773 15.3592 96.8736 16.5741 95.4891C18.4497 93.3515 20.2819 92.4487 23.2494 92.7858C25.9678 93.0946 29.7818 95.3295 32.0272 96.7564C32.8504 97.2795 33.6297 97.8777 34.4094 98.4763C35.1931 99.078 35.9773 99.6801 36.8071 100.207C36.6654 99.8507 36.5303 99.5234 36.4039 99.229C34.6793 95.2146 32.8207 91.3739 30.6581 87.5546C29.5773 85.6458 28.6713 83.6669 27.8045 81.7114C25.3553 81.8043 20.9389 81.9097 18.5339 81.5895C18.3839 81.5695 18.2254 81.5489 18.0595 81.5273C14.4131 81.0529 7.19077 80.1132 8.307 75.4276C8.59834 74.2047 9.45172 73.1253 10.5401 72.396C12.0121 71.4095 13.5874 71.6025 15.265 71.8081C15.5014 71.8371 15.7397 71.8663 15.9801 71.8925C17.9806 72.1105 20.0235 72.5344 21.7765 73.4904C23.0296 74.1738 24.1365 75.0521 25.2244 75.9511C23.8885 72.9978 22.5635 69.9872 21.5483 66.8906C21.0194 65.2774 20.591 63.6389 20.2265 61.9894C19.3135 62.2203 16.6212 61.597 14.2632 61.0511C13.4079 60.8532 12.5964 60.6653 11.9299 60.5321C7.96791 59.7404 2.01389 57.7863 1.97625 53.243C1.96532 51.9241 2.26381 48.8574 4.13802 48.5696C5.88479 48.3014 7.97911 48.8184 9.56623 49.4452C14.1244 51.2452 17.8792 55.811 19.5452 58.5303C19.2532 56.8795 18.9993 55.2276 18.7474 53.5889C18.4351 51.5572 18.126 49.5456 17.7511 47.5811C17.1478 44.4193 17.1249 41.377 17.2995 38.2849C17.3578 37.2536 17.4812 36.1602 17.6328 35.0537C16.6312 35.5001 14.6792 35.6111 13.7809 35.6622C13.6858 35.6676 13.6025 35.6723 13.5334 35.6767C12.0117 35.7734 10.3098 35.5424 8.85351 35.1295C4.45095 33.8813 2.08743 29.9359 1.10912 25.9141C0.776299 24.5459 1.19515 22.1634 2.49883 21.2407C3.23088 20.7226 4.14361 20.7399 5.01843 20.7566C5.06557 20.7575 5.1126 20.7583 5.15948 20.7592C9.80799 20.8392 13.7163 25.9745 16.6541 29.8347C17.179 30.5243 17.6728 31.1732 18.1344 31.7453C18.4306 29.8643 18.6996 28.0909 18.7474 26.6808C18.8032 25.0353 19.3526 21.0228 19.8867 18.6378C18.8925 17.4751 18.2304 12.2154 18.2304 9.2129C18.2304 8.99747 18.2291 8.78343 18.2278 8.57094C18.2117 5.99331 18.1971 3.64407 20.5766 1.8284C22.8552 0.0896611 23.8938 1.33551 25.2457 3.28389C26.2256 4.69606 26.8249 6.64175 26.9647 8.29251Z" fill="#FEFAE0" stroke="#606C38" stroke-width="2" stroke-linecap="round"/>
</svg>
