<svg width="77" height="56" viewBox="0 0 77 56" fill="none" xmlns="http://www.w3.org/2000/svg">
<path d="M8.90767 52.835C14.0457 54.1954 24.9593 55.6391 40.2363 55.5544C51.182 55.4937 74.9616 52.835 76.8375 48.9246C77.9288 46.0351 73.204 42.5296 72.174 42.2817C67.9627 41.2681 65.3305 41.1532 61.0901 40.7217C59.5833 40.5679 58.0721 40.6013 56.5568 40.6013C55.8859 40.6013 54.5622 40.9616 54.5622 40.9616C54.5622 40.9616 55.7343 40.044 56.3755 39.7612C57.5967 39.2224 58.7185 38.4724 59.9115 37.8409C64.4091 35.4589 69.1328 33.4953 73.4204 30.3992C75.0519 29.221 76.7262 26.4939 74.9616 24.1577C73.5042 22.2283 71.098 22.9482 69.2498 23.4375C65.0315 24.5544 60.866 27.1283 56.9692 29.5362L56.738 29.679C54.5622 31.0232 50.9356 34.2399 50.9356 34.2399C50.9356 34.2399 54.8721 29.0853 55.1062 28.7189C56.0597 27.2269 57.3109 26.1035 58.2794 24.638C59.036 23.4931 59.7289 22.3589 60.5461 21.2769C62.7038 18.4205 70.1572 8.25436 63.4472 6.0334C61.4345 5.36736 59.0698 6.96811 57.282 7.95407C52.234 10.7385 49.0031 17.0571 45.9491 22.7173C44.8592 24.7376 43.8371 27.1127 43.5012 29.5591C43.3708 30.5087 43.1384 31.4761 43.1384 32.4395V30.039C43.1384 28.3906 43.0302 26.7615 42.9572 25.1179C42.654 18.2979 42.0559 11.9368 40.4186 5.43353C39.9089 3.40926 39.6483 -0.388078 37.4267 0.0321922C35.2943 0.435375 34.0747 3.83352 33.4373 6.15373C32.2578 10.4474 31.3403 24.638 33.7095 36.2805C32.0597 33.4883 30.4385 30.8691 28.6321 28.2386C26.5939 25.2702 24.7105 21.9713 22.3763 19.3566C20.6978 17.4763 18.7412 16.2006 17.027 14.4355C15.1564 12.5094 12.7101 10.1052 10.3179 11.915C7.19549 14.277 10.76 19.1581 12.0406 21.2769C14.9372 26.0704 18.0486 31.1685 21.4695 35.3203C23.3388 37.5889 25.6733 39.3253 27.4534 41.6818C27.6374 41.925 27.0352 41.2725 26.8188 41.0816C26.2907 40.6155 25.7799 40.1585 25.2776 39.6412C23.7694 38.0884 22.2989 36.5771 20.7442 35.0804C16.9021 31.3808 11.5638 28.4077 6.87254 27.2785C5.4264 26.9302 3.26847 26.1806 1.88605 27.2785C-0.0431371 28.8109 2.77691 32.0658 3.60872 32.7998C7.57007 36.2958 10.2394 39.719 14.5948 42.2817L22.2857 46.8429C22.2857 46.8429 16.3636 44.7418 15.939 44.5731C11.5193 42.8179 8.35904 42.2817 3.78996 42.2817C2.49734 42.2817 -0.460506 44.0809 0.0609912 46.8429C0.705791 50.2574 6.50368 52.1988 8.90767 52.835Z" fill="#606C38"/>
</svg>
