<svg width="31" height="76" viewBox="0 0 31 76" fill="none" xmlns="http://www.w3.org/2000/svg">
<path d="M11.0949 74.6155C12.7152 75.149 14.6487 76.4837 16.7614 75.8179C17.5234 75.5778 17.9512 75.2583 18.4593 74.8941C20.6491 73.3244 22.15 71.6338 23.021 69.4832C23.5715 68.1242 24.3092 66.7794 24.8212 65.4214C25.4797 63.6748 25.8591 61.8173 26.335 60.0398C27.065 57.3133 28.0444 54.729 28.3192 51.9308L28.3352 51.7682C28.6574 48.4872 28.9759 45.2447 29.741 41.9962C30.6171 38.2765 30.0965 34.6812 30.2115 30.9325C30.2742 28.8878 30.365 26.8491 30.3853 24.803C30.4022 23.1117 30.8602 21.4522 30.9274 19.7661C30.9934 18.1102 31.1225 16.348 30.7127 14.7144C30.2862 13.0148 29.6606 11.3472 29.1886 9.65548C28.7439 8.06142 28.3264 6.4638 27.8488 4.87513C27.5415 3.85315 27.5655 2.79767 27.3476 1.76643C27.2051 1.09231 26.8454 -0.521987 25.3326 0.168092C23.9873 0.781765 23.03 1.72379 22.5608 2.80755C22.2103 3.61695 22.0587 4.45826 21.7323 5.27105C21.2945 6.36116 20.3344 7.29635 19.7173 8.33575C18.4271 10.5092 18.9942 13.1901 18.7456 15.5063C18.3809 18.9055 18.0501 22.3168 18.0501 25.7269C18.0501 28.8295 18.5378 32.1823 17.7228 35.2436C17.605 35.686 16.4587 39.3747 15.984 37.5458C15.6543 36.2752 15.5902 34.9598 15.3294 33.6746C15.1999 33.0364 15.1581 32.3927 15.0021 31.7536C14.7382 30.6727 14.2594 29.7521 13.8157 28.7182C13.2092 27.3053 13.0748 25.8146 12.2405 24.4511C11.574 23.3618 10.8661 22.2204 9.9903 21.2104C8.87585 19.9253 7.23264 18.9053 5.48989 18.0724C4.28456 17.4964 3.3149 16.1955 1.74637 16.1955C-1.5233 16.1955 0.771624 19.324 0.92811 20.5579C1.25324 23.1216 2.48825 25.5538 2.85101 28.117C3.06366 29.6196 3.06752 31.1341 3.32151 32.6334C3.67548 34.723 4.25552 36.6826 4.96825 38.7262C5.68133 40.7708 6.34615 42.7253 6.63545 44.8336C6.90782 46.8186 6.93973 48.8187 7.09572 50.809C7.40301 54.7299 7.48256 58.6488 8.00603 62.562C8.38048 65.3612 9.04901 68.1984 9.20273 71.0082C9.25207 71.9101 9.27823 72.8689 9.58117 73.7504C9.76391 74.282 10.424 74.3946 11.0949 74.6155Z" fill="#606C38"/>
</svg>
