<svg width="469" height="488" viewBox="0 0 469 488" fill="none" xmlns="http://www.w3.org/2000/svg">
<path d="M158.61 314.802C148.837 317.682 124.444 325.683 122.903 327.654C120.752 330.405 120.897 333.782 120.909 336.636C112.771 339.55 104.638 342.589 96.4443 345.345C92.1548 346.787 86.166 348.766 82.7723 351.615C79.2931 354.537 77.6861 362.378 84.3291 361.862C87.5691 361.61 90.9102 360.253 94.0451 359.289C100.381 357.341 106.639 355.139 112.917 353.01C109.786 356.134 111.275 361.258 115.434 362.21C116.976 362.562 118.757 362.146 120.385 361.695C116.149 366.632 122.708 369.377 127.778 369.372C127.697 370.315 127.573 371.237 127.766 372.14C128.592 376.001 134.299 376.287 138.612 375.351C142.43 374.522 164.316 367.01 174.825 363.175" stroke="#283618" stroke-width="2" stroke-miterlimit="1.5" stroke-linecap="round" stroke-linejoin="round"/>
<path d="M120.86 336.629C126.269 334.583 131.99 333.281 137.403 331.205" stroke="#283618" stroke-width="2" stroke-miterlimit="1.5" stroke-linecap="round" stroke-linejoin="round"/>
<path d="M171.824 307.811C167.298 309.26 162.74 310.959 158.421 312.533C158.885 316.737 160.849 320.413 162.288 324.296C163.661 328.002 164.526 331.896 165.85 335.625C169.312 345.375 171.653 355.575 175.525 365.186C179.083 363.893 184.539 362.163 189.191 360.603" stroke="#283618" stroke-width="2" stroke-miterlimit="1.5" stroke-linecap="round" stroke-linejoin="round"/>
<path d="M502.039 200.599C487.681 205.105 462.554 215.535 446.796 214.878C437.411 214.486 434.401 206.847 431.961 200.823C425.788 185.586 420.242 173.781 414.375 158.375C385.23 81.8388 204.763 147.993 229.203 226.954C233.033 239.329 236.013 251.898 240.632 264.04C244.653 274.614 237.134 280.728 224.72 286.125C207.485 293.617 187.927 297.014 171.042 304.969C175.458 314.928 177.385 325.731 180.994 335.947C184.35 345.45 188.039 354.981 190.891 364.661C197.316 361.231 206.285 359.48 213.306 357.201C230.463 351.632 261.308 338.601 278.179 332.191C288.045 328.443 300.565 323.172 307.505 315.861C316.395 306.496 321.399 293.805 323.861 282.98C325.662 275.064 325.807 266.989 324.123 259.544C321.898 249.704 320.118 239.585 317.798 229.817C315.265 219.157 313.832 207.366 327.484 200.706C331.984 198.511 336.862 197.82 341.175 199.247C350.746 202.413 359.327 229.188 361.262 235.037C367.763 254.694 380.496 282.435 411.99 288.998C425.94 291.905 454.46 284.314 468.103 279.358C485.892 272.896 499.899 268.759 517.406 261.577" stroke="#283618" stroke-width="2" stroke-miterlimit="1.5" stroke-linecap="round" stroke-linejoin="round"/>
</svg>
