<svg width="78" height="146" viewBox="0 0 78 146" fill="none" xmlns="http://www.w3.org/2000/svg">
<path d="M4.03047 14.9378C6.79092 18.5906 10.426 22.2699 14.944 24.5642C26.6454 30.5063 39.838 24.9077 39.838 24.9077C39.838 24.9077 34.0589 9.67509 22.3575 3.73303C13.3983 -0.816552 3.56485 1.39937 -0.551907 2.68779L-0.953496 1.61422L-5.00117 3.12834L-4.5983 4.20534C-8.57928 5.95711 -17.3823 10.7375 -21.137 20.003C-26.0658 32.166 -20.4289 47.4517 -20.4289 47.4517C-20.4289 47.4517 -6.80075 43.0175 -1.87194 30.8546C-0.000531542 26.2365 0.347695 21.1682 0.0596179 16.6573L7.55745 36.7012C3.57647 38.453 -5.22653 43.2334 -8.98122 52.4989C-13.91 64.6618 -8.27312 79.9476 -8.27312 79.9476C-8.27312 79.9476 5.355 75.5134 10.2838 63.3505C12.1552 58.7324 12.5034 53.6641 12.2154 49.1532L19.7132 69.1972C15.7322 70.9489 6.92925 75.7294 3.17456 84.9949C-1.75426 97.1578 3.88266 112.444 3.88266 112.444C3.88266 112.444 17.5108 108.009 22.4396 95.8464C24.311 91.2283 24.6592 86.16 24.3711 81.6491L31.869 101.693C27.888 103.445 19.085 108.225 15.3303 117.491C10.4015 129.654 16.0384 144.939 16.0384 144.939C16.0384 144.939 29.6665 140.505 34.5954 128.342C36.4668 123.724 36.815 118.656 36.5269 114.145L44.5054 135.474L48.5531 133.96L40.4978 112.426C43.2582 116.078 46.8933 119.758 51.4113 122.052C63.1127 127.994 76.3053 122.395 76.3053 122.395C76.3053 122.395 70.5262 107.163 58.8248 101.221C49.8656 96.6712 40.0322 98.8871 35.9154 100.176L28.342 79.9296C31.1024 83.5824 34.7376 87.2617 39.2556 89.556C50.9569 95.4981 64.1495 89.8995 64.1495 89.8995C64.1495 89.8995 58.3704 74.6669 46.669 68.7249C37.7098 64.1753 27.8764 66.3912 23.7596 67.6796L16.1862 47.4337C18.9467 51.0865 22.5818 54.7658 27.0998 57.0601C38.8011 63.0021 51.9937 57.4035 51.9937 57.4035C51.9937 57.4035 46.2146 42.171 34.5133 36.2289C25.554 31.6793 15.7206 33.8953 11.6038 35.1837L4.03047 14.9378Z" fill="#FEFAE0" stroke="#283618" stroke-width="2" stroke-linecap="square" stroke-linejoin="round"/>
</svg>
