<svg width="145" height="155" viewBox="0 0 145 155" fill="none" xmlns="http://www.w3.org/2000/svg">
<path d="M90.2073 59.5464C84.9592 59.9777 79.6195 60.4165 74.3127 60.9374C66.9749 61.6577 57.5086 62.9852 52.7342 63.1257C49.5136 63.2204 37.3484 53.5954 36.5257 45.4821C36.167 41.9451 76.6916 48.9651 92.4694 48.6199C94.6405 48.5724 97.0141 48.9811 100.33 49.7464C105.458 50.9298 110.759 48.1039 112.17 43.4346C113.581 38.7653 110.568 34.0207 105.44 32.8373C101.929 32.0268 97.3849 31.0721 92.3956 31.1812C79.8369 31.456 33.7476 32.2022 22.544 29.8572C18.4868 29.008 13.5321 26.301 9.06586 19.7236C6.10449 15.3624 44.2061 20.3504 60.1385 20.274C65.7858 20.2469 76.4224 23.0564 79.115 16.8142C81.0635 12.2972 78.6313 7.27898 73.6827 5.60571C70.8651 4.65304 67.3884 4.59579 65.1125 4.60671C62.3239 4.62007 59.0037 4.8034 55.4585 5.08347C48.3401 5.64583 39.6811 6.65044 31.2677 7.74711C19.3721 9.29769 0.619082 10.6446 -4.16292 8.90093C-11.8347 6.10354 -14.3049 2.24901 -21.927 -2.54999C-26.2521 -5.27306 -32.2673 -4.25946 -35.3624 -0.28608C-38.4575 3.68733 -37.4604 9.11588 -33.1354 11.839L-16.4868 22.3149C-15.3159 23.0542 -14.2773 23.6035 -13.0698 24.6496C-9.92004 27.3785 -17.8028 43.483 -19.5431 53.0101C-21.6811 64.7143 -22.6952 77.6841 -18.4009 89.6842C-16.7711 94.2384 -11.3459 96.6584 -6.28334 95.0894C-1.2208 93.5203 1.56201 88.5565 -0.0677858 84.0022C-4.82177 70.7178 -4.5834 51.843 -1.20645 38.0552C3.37538 42.0277 8.91317 46.551 9.27185 50.0881C9.63054 53.6251 12.0199 78.0159 10.4698 93.2519C10.1675 96.2236 9.93134 98.9053 9.7898 101.079C9.36096 107.664 10.0141 114.683 13.1319 120.626C15.3961 124.942 18.318 124.56 23.1304 122.421C27.9427 120.282 27.2153 115.081 26.7519 110.512C24.0493 101.981 20.7353 64.309 23.8069 61.1992C27.8601 57.0954 38.6606 74.9498 41.4553 78.3715C41.0975 80.6694 40.8132 83.0612 40.5683 85.3477C40.0057 90.6011 39.6126 95.8648 39.055 101.118C38.3561 107.704 38.0692 118.807 37.8574 127.003C37.8092 128.999 37.7564 130.995 37.6914 132.991C37.5344 137.808 41.7166 141.748 47.0327 141.793C52.3488 141.837 56.7856 137.968 56.9427 133.151C57.0152 130.925 57.0602 128.699 57.1294 126.472C57.373 117.122 47.2875 91.6501 52.6787 91.1034C58.0699 90.5567 79.3735 111.523 79.3735 111.523C79.3735 111.523 78.5853 123.348 79.0971 130.877L79.2877 133.782C79.4783 136.793 79.6402 139.701 79.7665 142.358C79.9951 147.165 81.4462 153.458 86.7597 153.154C92.0732 152.849 93.9928 145.745 93.7642 140.938C93.4899 135.171 87.3447 123.877 91.7964 121.534C96.2552 119.186 104.922 122.557 112.543 130.409C120.164 138.261 117.222 146.445 122.494 145.238C134.207 142.558 122.29 129.67 120.401 124.603C120.456 124.592 151.94 131.813 141.548 118.859C138.911 115.572 133.997 114.529 128.908 116.022C119.802 118.694 117.716 116.685 111.075 115.935C105.347 112.989 95.3165 109.907 87.5157 102.678C79.7149 95.4485 120.123 103.798 129.895 98.3799C134.361 95.682 133.224 92.5478 132.12 91.0219C127.639 84.8322 120.792 83.5434 114.487 84.8356C102.058 87.3828 90.9691 87.29 78.7774 91.895C76.8587 92.6197 66.4711 82.721 65.7799 75.9048C65.1643 69.8337 107.581 75.0194 117.146 74.4337C122.458 74.1084 126.561 69.9487 126.31 65.1427C126.058 60.3367 121.548 56.7045 116.236 57.0298C111.774 57.303 108.314 57.6839 105.206 58.0563C104.614 58.1272 104.044 58.1966 103.489 58.2642C101.098 58.5553 98.9785 58.8133 96.523 59.0217M90.2073 59.5464L90.2096 59.5462L96.523 59.0217M90.2073 59.5464L96.523 59.0217" stroke="#283618" stroke-width="2" stroke-linecap="round"/>
</svg>
