<svg width="49" height="42" viewBox="0 0 49 42" fill="none" xmlns="http://www.w3.org/2000/svg">
<path fill-rule="evenodd" clip-rule="evenodd" d="M47.5727 17.0968C48.2204 17.7533 49.0017 19.4375 48.2628 20.0754C47.2536 20.9466 42.9219 22.2327 41.5308 22.8992C41.2705 23.024 40.5081 23.2283 40.4208 23.4937C40.2561 23.9939 40.5112 24.7704 40.4448 25.3022C40.1514 27.6526 40.188 30.1096 39.5703 32.4458C39.3532 33.2668 38.8685 35.2668 37.6065 35.7116C34.482 36.813 34.3372 31.9725 34.0587 30.6347C33.942 30.0742 33.8549 29.5077 33.6531 28.9686C33.5309 28.6422 32.7786 25.9227 32.2935 26.3883C31.3503 27.2937 31.0926 29.7132 30.8898 30.7648C30.4106 33.2497 29.611 35.7998 28.3295 38.1639C27.7533 39.2269 26.9233 41.6421 25.1341 41.8349C24.4696 41.9066 23.69 41.1654 23.3055 40.8402C20.9524 38.8499 22.7733 36.4047 23.2114 33.9537C23.3813 33.0029 23.5749 31.9753 23.3819 31.0482C23.371 30.9958 23.4168 30.8867 23.3492 30.8911C22.7212 30.9323 20.315 33.779 19.9147 34.2032C17.7291 36.5189 14.9417 39.0878 11.7475 40.5185C11.1 40.8085 7.92953 42.7125 7.24845 41.3718C6.76604 40.4222 8.06376 38.9198 8.28874 38.5788C10.2846 35.5536 12.2306 32.5294 14.9631 29.8342C16.0571 28.7551 17.1868 27.731 18.1901 26.5971C18.2501 26.5293 19.1392 25.6141 18.8799 25.508C18.478 25.3437 15.3124 26.1661 14.7996 26.2826C13.7589 26.5191 12.7239 26.7645 11.6795 26.9863C8.81596 27.5947 0.901399 30.0643 0.0231859 26.4193C-0.227204 25.3802 1.60995 24.7407 2.56677 24.3009C5.99696 22.7241 9.70222 21.8739 13.3987 20.9647C14.6018 20.6688 15.8146 20.4208 17.0268 20.1633L18.6472 19.8191C17.0191 20.165 15.231 19.7619 13.7037 19.496C9.87689 18.83 5.95272 17.503 2.92106 15.6181C0.59302 14.1707 -1.05423 11.806 2.43644 10.0749C6.69885 7.96101 13.3631 11.594 17.0095 12.7994C18.6004 13.3253 20.1967 13.8298 21.8216 14.2978C22.2879 14.4321 22.7542 14.5684 23.23 14.6852C23.4662 14.7432 23.7079 14.792 23.9529 14.8287C23.9979 14.8354 24.1237 14.8718 24.087 14.8515C21.1901 13.2487 19.4802 8.6515 18.7401 5.9863C18.479 5.04608 17.678 2.93865 19.4765 2.35616C20.7992 1.92777 22.204 2.56487 23.1646 3.14028C25.5958 4.59671 26.9442 6.81046 28.0512 9.06007C28.5022 9.97659 28.9588 10.89 29.5183 11.761C29.5459 11.8039 30.1927 12.7388 30.2504 12.6814C30.3882 12.5442 29.8196 10.2167 29.7715 9.98579C29.2954 7.69886 28.3435 5.32263 28.4703 2.94577C28.5078 2.24288 28.7041 -0.259905 30.3625 0.0221967C31.7015 0.249991 33.401 3.16726 33.9698 4.02148C35.7238 6.65538 36.8723 9.33732 37.9045 12.2544C38.2966 13.3621 38.71 14.6571 38.7463 15.8463C38.7579 16.229 38.5613 17.8574 38.9708 17.9402C39.1895 17.9844 42.2012 17.5227 42.6931 17.4774C43.594 17.3946 46.9249 16.4402 47.5727 17.0968Z" fill="#DDA15E"/>
</svg>
