<svg width="128" height="164" viewBox="0 0 128 164" fill="none" xmlns="http://www.w3.org/2000/svg">
<path fill-rule="evenodd" clip-rule="evenodd" d="M33.0127 105.492C34.0849 106.755 36.7556 99.4941 38.9917 96.7724C40.2559 95.234 47.7238 85.9334 49.4664 84.2201C61.3553 72.5323 76.7953 64.339 93.0499 62.7483C98.4758 62.2174 105.42 62.5496 110.72 63.0558C113.884 63.3579 117.02 63.8682 120.165 64.3073C120.498 64.3538 125.439 65.1033 125.812 65.4232C126.419 65.9442 125.836 69.0192 125.725 69.4536C125.061 72.0697 123.348 76.807 122.406 79.023C117.826 89.7979 111.046 100.327 103.484 109.167C91.7912 122.837 76.4546 133.511 59.0703 136.888C53.999 137.874 47.1909 138.278 42.0713 138.146C41.6466 138.135 29.5156 136.903 28.9971 137.175C26.92 138.262 26.166 141.024 24.9336 143.073C23.5056 145.446 20.6954 152.101 19.7255 154.27C18.8883 156.142 18.1086 158.044 17.1855 159.874C16.7239 160.79 16.5654 162.437 15.5796 162.492C15.0416 162.522 1.39853 158.425 1.09724 157.693C0.177299 155.458 5.87892 148.449 6.87919 146.197C10.153 138.823 10.3369 135.86 12.4558 128.107C21.2151 96.0565 25.2083 62.802 27.8144 29.8518C28.3842 22.6501 27.7886 9.74843 28.4042 2.54941C28.4767 1.70227 29.0967 1.09466 29.9161 1.03615C32.3209 0.864615 34.0553 1.36797 36.2821 2.1864C36.8617 2.39916 37.5957 2.4877 37.9424 3.01042C38.5097 3.86522 38.6528 4.97192 38.8153 6.00392C39.8284 12.4268 40.4596 32.9426 40.4025 36.054C40.2603 43.8085 39.9364 51.566 39.4834 59.3164C38.5877 74.6482 34.3776 97.5289 33.0127 105.492Z" fill="#606C38" stroke="#606C38" stroke-width="2" stroke-miterlimit="1.5" stroke-linecap="round" stroke-linejoin="round"/>
</svg>
