<svg width="98" height="149" viewBox="0 0 98 149" fill="none" xmlns="http://www.w3.org/2000/svg">
<path fill-rule="evenodd" clip-rule="evenodd" d="M2.85141 64.7672C2.65094 64.4517 31.238 85.3487 38.7288 92.1178C41.5421 94.66 79.6197 147.389 79.9767 147.697C81.9473 149.401 86.4421 146.882 89.2902 144.92C91.1858 143.614 96.9866 140.275 97.7913 138.356C98.2091 137.36 96.2519 134.464 95.8759 133.636C93.7907 129.042 91.4021 124.607 78.8475 103.319C75.3575 95.9562 71.3831 88.7868 67.9939 81.3853C63.4737 71.514 59.6775 61.3881 55.6198 51.3539C51.1084 40.1983 47.4979 31.3924 43.3877 20.1077C42.0606 16.4644 37.1321 5.95145 35.9417 2.27729C33.9747 -3.79361 24.55 3.863 20.628 6.84307C15.882 10.4493 28.9268 21.2272 35.2574 39.9428C38.3959 49.2213 41.1507 71.0804 41.4824 71.6025C41.5352 71.6856 41.7128 71.8048 41.6407 71.8515C41.5897 71.8846 12.108 57.7658 7.06 55.3407C-1.05192 51.4435 -1.77024 60.9356 2.85141 64.7672Z" fill="#DDA15E"/>
</svg>
